<svg width="60" height="80" viewBox="0 0 60 80" fill="none" xmlns="http://www.w3.org/2000/svg">
  <!-- Coral decoration matching the reference design -->
  <path d="M30 80C30 80 20 70 15 60C10 50 8 40 8 30C8 20 12 10 20 5C25 2 30 0 30 0C30 0 35 2 40 5C48 10 52 20 52 30C52 40 50 50 45 60C40 70 30 80 30 80Z" fill="#FF6B6B" opacity="0.8"/>
  <path d="M25 70C25 70 20 60 18 50C16 40 15 30 17 22C19 14 23 8 28 5C30 4 32 3 32 3C32 3 34 4 36 6C40 10 42 16 42 24C42 32 40 42 38 50C36 60 30 70 30 70" fill="#FF8A80" opacity="0.9"/>
  <ellipse cx="30" cy="20" rx="4" ry="6" fill="#FF5252" opacity="0.7"/>
  <ellipse cx="22" cy="35" rx="3" ry="5" fill="#FF5252" opacity="0.7"/>
  <ellipse cx="38" cy="35" rx="3" ry="5" fill="#FF5252" opacity="0.7"/>
</svg>
